<?xml version="1.0" standalone="no"?>
<!DOCTYPE svg PUBLIC "-//W3C//DTD SVG 20010904//EN"
 "http://www.w3.org/TR/2001/REC-SVG-20010904/DTD/svg10.dtd">
<svg version="1.0" xmlns="http://www.w3.org/2000/svg"
 width="500.000000pt" height="500.000000pt" viewBox="0 0 500.000000 500.000000"
 preserveAspectRatio="xMidYMid meet">
<metadata>
Created by potrace 1.14, written by Peter Selinger 2001-2017
</metadata>
<g transform="translate(0.000000,500.000000) scale(0.100000,-0.100000)"
fill="#000000" stroke="none">
<path d="M2370 4857 c-134 -35 -282 -128 -295 -185 -3 -15 -17 -46 -31 -67
-14 -22 -23 -31 -20 -20 3 11 1 27 -4 35 -15 23 -43 0 -58 -48 -8 -23 -18 -42
-23 -42 -5 0 -6 -13 -3 -30 6 -25 -3 -42 -59 -117 -35 -49 -74 -104 -86 -123
-22 -37 -28 -80 -11 -80 6 0 10 9 10 21 0 28 13 51 84 147 46 62 62 78 66 66
5 -13 10 -8 22 22 24 58 147 205 186 221 44 18 40 1 -9 -37 -35 -29 -131 -146
-166 -205 -7 -11 -13 -38 -14 -60 -2 -33 -3 -35 -6 -11 -3 21 -7 25 -13 16 -5
-7 -5 -23 0 -35 7 -18 -3 -35 -57 -99 -36 -42 -62 -80 -58 -84 4 -4 35 24 70
61 47 51 64 64 68 53 12 -30 -14 -70 -101 -161 -153 -157 -272 -314 -272 -357
0 -34 17 -18 42 40 15 33 61 99 111 157 170 200 220 242 112 96 -25 -34 -43
-66 -40 -69 4 -4 14 2 23 13 10 11 25 19 35 17 13 -3 25 13 49 67 17 39 35 71
40 71 6 0 1 -16 -11 -36 -22 -37 -29 -80 -11 -69 6 4 26 37 45 73 30 56 34 61
29 32 -3 -19 -15 -44 -25 -56 -19 -20 -24 -60 -13 -101 4 -13 9 -23 13 -23 13
0 39 55 54 112 10 38 26 68 48 90 37 37 119 170 119 192 0 7 9 21 20 31 11 10
20 15 20 12 0 -15 -24 -66 -47 -99 l-25 -37 25 -26 c21 -23 27 -25 46 -15 19
10 22 17 16 48 -8 53 9 133 34 153 12 10 34 46 49 81 32 71 48 87 89 94 15 2
33 7 40 9 7 2 15 0 18 -5 4 -6 17 -10 30 -10 40 0 133 -39 242 -102 57 -33
108 -56 114 -52 7 4 9 3 6 -4 -8 -11 44 -44 155 -99 74 -36 93 -38 59 -4 -12
12 -21 29 -21 39 0 10 36 -22 95 -84 71 -77 102 -103 125 -106 38 -6 40 14 5
46 -28 26 -33 41 -10 32 9 -3 15 0 15 8 0 7 -18 21 -39 31 -41 18 -78 53 -126
118 l-28 38 51 -7 c75 -10 66 10 -15 37 -63 20 -76 30 -173 130 -58 59 -102
105 -97 103 4 -3 7 0 7 7 0 7 -18 30 -41 51 l-41 39 -36 -23 c-32 -20 -50 -23
-139 -23 -68 0 -106 4 -114 13 -10 10 -9 12 7 12 11 0 -3 11 -31 24 -62 30
-55 34 11 5 40 -18 59 -21 118 -16 69 6 132 22 149 37 19 17 -91 42 -203 46
-96 3 -129 0 -200 -19z m4 -49 c-12 -22 -37 -48 -44 -48 -4 0 4 13 19 30 28
32 36 37 25 18z m-66 -53 c-7 -7 -97 -9 -105 -2 -3 4 20 7 52 7 32 0 56 -2 53
-5z m542 -35 c12 -8 12 -10 -5 -10 -11 0 -27 5 -35 10 -12 8 -12 10 5 10 11 0
27 -5 35 -10z m43 -56 c26 -20 47 -38 47 -40 0 -2 -24 8 -52 21 -29 14 -58 25
-64 25 -6 0 -17 7 -24 15 -11 13 -8 15 17 15 19 0 47 -13 76 -36z m-363 12 c0
-3 -4 -8 -10 -11 -5 -3 -10 -1 -10 4 0 6 5 11 10 11 6 0 10 -2 10 -4z m370
-205 c0 -5 -7 -14 -15 -21 -13 -10 -15 -9 -15 9 0 12 6 21 15 21 8 0 15 -4 15
-9z m201 -38 c13 -16 12 -17 -3 -4 -17 13 -22 21 -14 21 2 0 10 -8 17 -17z
m39 -78 c13 -14 21 -25 18 -25 -2 0 -15 11 -28 25 -13 14 -21 25 -18 25 2 0
15 -11 28 -25z m70 -80 c13 -14 21 -25 18 -25 -2 0 -15 11 -28 25 -13 14 -21
25 -18 25 2 0 15 -11 28 -25z m-973 -20 c9 -25 -4 -29 -17 -6 -7 15 -7 21 0
21 6 0 13 -7 17 -15z"/>
<path d="M2208 4843 c12 -2 32 -2 45 0 12 2 2 4 -23 4 -25 0 -35 -2 -22 -4z"/>
<path d="M2407 4562 c-15 -16 -15 -19 -2 -19 8 0 13 3 10 5 -3 3 0 11 6 19 17
20 5 16 -14 -5z"/>
<path d="M2585 4516 c27 -24 64 -47 81 -51 17 -3 73 -26 124 -51 51 -25 100
-43 109 -42 17 3 -257 161 -299 173 -63 17 -64 15 -15 -29z"/>
<path d="M2328 4423 c-28 -57 -48 -106 -45 -109 2 -3 10 9 17 26 7 16 16 30
21 30 5 0 9 5 9 11 0 7 17 42 39 79 28 49 34 67 23 67 -9 0 -34 -41 -64 -104z"/>
<path d="M2755 4400 c33 -16 65 -29 70 -29 13 1 -107 57 -120 57 -5 0 17 -13
50 -28z"/>
<path d="M2924 4354 c15 -34 17 -127 6 -194 -6 -36 -15 -108 -20 -160 -11
-138 -49 -209 -133 -251 -52 -27 -105 -27 -202 1 -142 40 -177 58 -242 128
-27 29 -32 42 -31 83 0 53 -25 104 -62 127 -11 7 -18 17 -15 22 9 14 -12 48
-34 55 -10 3 -22 15 -28 27 -9 20 -11 18 -36 -25 -24 -41 -28 -85 -6 -71 25
15 149 -132 149 -178 0 -8 5 -19 12 -26 13 -13 12 -95 -2 -121 -5 -9 -11 -24
-14 -34 -5 -15 -12 -17 -43 -11 -73 14 -225 9 -287 -10 -230 -69 -493 -295
-698 -602 -61 -91 -62 -92 -85 -77 -33 22 -41 8 -13 -22 13 -14 21 -28 17 -31
-3 -4 5 -22 18 -41 13 -20 22 -40 20 -47 -2 -6 -18 -63 -36 -126 -35 -126 -36
-203 -5 -270 l16 -35 -8 35 c-13 64 -5 192 16 255 l20 60 0 -130 c1 -71 -2
-159 -6 -195 -4 -36 -5 -117 -2 -180 4 -91 8 -114 19 -112 10 2 12 -5 7 -29
-3 -18 1 -58 10 -93 22 -84 35 -103 28 -41 l-6 50 21 -30 c11 -16 21 -34 21
-39 0 -5 15 -41 34 -80 41 -87 82 -183 91 -216 12 -42 -78 52 -108 113 -18 35
-26 45 -27 31 0 -35 76 -139 150 -205 65 -59 68 -63 74 -118 13 -111 46 -281
65 -333 14 -38 21 -90 24 -183 3 -72 14 -172 25 -225 11 -52 23 -140 26 -195
12 -174 14 -183 48 -190 32 -7 84 -77 94 -125 3 -14 14 -43 24 -65 12 -25 19
-59 18 -90 -1 -27 2 -60 6 -72 5 -14 3 -23 -3 -23 -8 0 -8 -6 0 -18 7 -12 25
-19 50 -21 43 -2 53 13 15 23 -26 6 -53 61 -35 71 15 10 11 51 -11 107 -25 65
-25 87 -2 104 14 10 15 15 5 25 -7 7 -13 21 -13 31 0 15 9 18 53 18 46 0 122
10 192 25 17 3 20 -1 20 -27 0 -17 6 -33 14 -36 10 -3 12 4 9 32 -2 20 -1 36
3 36 4 0 14 3 23 6 12 5 14 -3 9 -52 -5 -43 -3 -60 8 -68 8 -6 15 -30 16 -53
4 -64 10 -89 29 -119 10 -15 21 -48 24 -72 3 -25 11 -47 18 -50 19 -6 15 27
-13 106 -14 40 -25 94 -25 122 0 28 -6 61 -14 73 -10 16 -12 35 -7 70 5 26 4
50 -1 53 -15 10 -8 36 12 41 19 5 20 14 20 152 1 165 10 229 36 248 25 18 58
16 85 -6 24 -19 24 -22 22 -195 -1 -165 0 -176 17 -176 13 0 18 -7 18 -22 -5
-78 3 -158 17 -171 13 -13 13 -16 -1 -21 -16 -6 -16 -24 3 -111 3 -16 7 -60 7
-98 1 -66 1 -67 29 -67 26 0 27 1 13 23 -17 25 -33 207 -18 207 4 0 18 -11 30
-25 16 -18 32 -25 58 -25 20 0 54 -5 76 -12 59 -17 67 1 18 41 -31 25 -47 31
-66 27 -16 -4 -30 -1 -40 9 -9 8 -23 15 -33 15 -10 0 -23 11 -29 25 -12 25
-36 194 -29 201 2 2 73 8 158 14 85 5 194 15 242 21 49 6 99 8 113 5 14 -4 24
-2 24 4 0 35 -42 537 -50 597 -5 39 -19 96 -30 125 -11 29 -20 61 -20 70 0 9
18 54 40 100 23 46 77 196 121 333 45 138 106 326 136 419 30 92 52 170 50
172 -2 3 -47 -121 -100 -273 -52 -153 -130 -379 -173 -503 l-79 -225 -7 65
c-3 36 -11 83 -15 105 -7 32 -4 55 14 113 27 85 69 291 77 377 3 33 -9 -11
-28 -100 -33 -160 -61 -262 -77 -279 -5 -6 -9 26 -9 76 0 60 4 88 13 91 9 3
12 103 12 453 0 247 4 462 9 478 8 27 11 23 40 -55 19 -51 28 -87 22 -91 -14
-9 12 -38 35 -38 18 0 19 -9 19 -127 0 -71 -7 -173 -15 -227 -17 -113 -18
-131 -4 -96 24 59 50 258 48 360 -3 97 -1 105 17 108 99 16 172 42 208 76 22
20 37 36 34 36 -4 0 -58 -15 -120 -34 -62 -19 -122 -36 -133 -38 -17 -3 -25
11 -57 97 -21 55 -38 100 -38 100 0 0 53 0 117 0 65 0 130 3 145 8 26 7 29 4
58 -52 34 -69 41 -75 63 -58 15 11 13 17 -19 65 -46 68 -104 207 -104 250 0
41 -26 105 -40 97 -5 -3 -10 -2 -10 4 0 18 -47 61 -66 61 -14 0 -4 -15 39 -55
61 -59 68 -70 38 -62 -17 4 -17 1 -9 -36 5 -22 7 -41 5 -43 -5 -6 -139 -24
-175 -24 -20 0 -31 4 -27 10 4 7 -8 10 -32 10 -51 -1 -229 17 -275 29 -21 5
-38 5 -38 1 0 -20 -37 -18 -84 3 -28 13 -90 36 -139 52 -67 21 -85 31 -77 41
8 9 3 14 -22 19 -18 4 -116 40 -218 80 -185 74 -374 134 -483 155 l-59 12 26
27 c25 26 26 26 123 19 62 -4 124 -16 169 -31 81 -28 294 -120 339 -147 38
-22 105 -45 125 -42 9 2 98 -13 199 -33 100 -19 194 -35 209 -36 27 0 27 0 4
-10 -15 -5 -22 -16 -20 -26 3 -15 21 -19 123 -27 66 -5 148 -9 183 -9 44 -1
62 -5 62 -14 0 -7 5 -13 11 -13 6 0 8 9 4 20 -3 11 -3 20 2 20 4 0 14 4 22 9
12 8 8 18 -20 54 l-34 45 -220 5 c-184 4 -248 10 -394 35 -164 29 -175 32
-200 61 -43 50 -357 157 -516 176 -91 11 -94 16 -37 64 l50 41 74 -28 c110
-44 238 -84 264 -84 12 0 25 -7 28 -14 7 -19 43 -18 54 1 7 13 19 10 88 -21
195 -90 324 -122 503 -125 113 -2 113 -2 90 -21 -22 -18 -22 -19 -2 -9 12 6
25 16 28 21 3 6 25 10 49 10 33 0 49 6 72 29 l29 28 33 -32 34 -32 -32 5 c-32
5 -33 4 -26 -24 12 -45 35 -55 64 -26 16 17 18 17 35 -3 18 -20 18 -20 8 2 -6
12 -11 30 -11 41 0 10 -11 29 -25 42 -14 13 -25 32 -25 42 0 11 -4 17 -9 13
-17 -10 -123 74 -178 140 -33 39 -67 69 -87 76 -28 10 -35 19 -44 58 -12 53
-11 57 24 65 41 11 113 64 135 99 10 18 19 48 20 67 l1 35 14 -35 c21 -50 29
-63 43 -68 13 -4 9 54 -9 150 -10 49 0 132 17 149 18 18 41 -3 67 -60 14 -32
26 -65 26 -72 1 -10 5 -8 15 5 12 16 10 24 -25 75 -35 51 -60 111 -47 111 3 0
20 -29 38 -65 36 -74 64 -88 57 -27 -3 24 0 40 9 47 12 9 12 21 2 77 l-12 67
-61 37 c-140 85 -131 80 -122 58z m-524 -564 c14 -17 241 -100 271 -100 11 0
18 -23 27 -82 6 -45 10 -83 8 -85 -3 -4 -47 18 -94 48 -28 17 -43 2 -17 -17
11 -8 19 -21 17 -28 -3 -15 103 -31 131 -20 12 4 20 -2 28 -22 10 -23 13 -25
16 -11 3 9 -5 33 -17 53 -12 19 -20 37 -18 40 9 9 59 -39 92 -88 19 -27 48
-60 65 -73 31 -22 29 -41 -2 -29 -8 3 -18 1 -22 -5 -3 -6 -15 -11 -26 -11 -11
0 -32 -9 -47 -20 -27 -19 -28 -19 -172 0 -226 30 -272 45 -385 121 -51 34
-235 206 -235 219 0 4 17 -1 37 -11 41 -21 179 -27 213 -9 10 5 24 27 30 47 7
21 16 42 21 48 12 12 11 52 -1 60 -5 3 -10 13 -10 20 0 11 9 9 38 -7 20 -12
44 -29 52 -38z m-180 -85 c20 -24 2 -35 -59 -35 -39 0 -63 5 -71 14 -9 12 -5
16 27 21 21 4 43 8 48 10 23 8 43 4 55 -10z m-230 -86 l5 -54 58 -27 c35 -17
57 -34 57 -44 0 -12 -6 -15 -22 -11 -26 6 -291 99 -297 104 -14 10 162 96 184
89 6 -1 12 -27 15 -57z m40 -45 c0 -8 -4 -12 -10 -9 -5 3 -10 10 -10 16 0 5 5
9 10 9 6 0 10 -7 10 -16z m-285 -305 c83 -27 164 -56 180 -64 l30 -15 -35 5
c-19 3 -98 17 -175 30 -214 36 -275 41 -275 22 0 -18 23 -23 150 -32 148 -10
499 -93 618 -145 25 -11 58 -20 74 -20 16 0 27 -4 24 -9 -3 -4 14 -14 37 -21
101 -29 477 -181 477 -192 0 -14 -23 -8 -67 17 -103 61 -477 191 -642 224 -53
11 -159 25 -236 31 -97 8 -178 22 -265 45 -69 18 -152 39 -185 45 -33 6 -66
13 -73 16 -9 2 5 24 39 62 l52 58 61 -4 c37 -2 121 -24 211 -53z m-332 -104
c81 -11 158 -28 163 -36 3 -5 0 -9 -5 -9 -6 0 -11 -7 -11 -16 0 -16 -36 -16
-177 2 -26 3 -44 1 -48 -7 -13 -20 17 -29 98 -29 75 0 207 -25 207 -39 0 -4
-11 -40 -25 -79 -14 -39 -25 -78 -25 -87 0 -20 -2 -19 -58 8 -26 13 -103 46
-172 73 -69 26 -126 48 -127 49 -1 0 3 16 10 35 17 49 99 151 115 145 8 -3 32
-7 55 -10z m252 -95 c7 -11 -9 -11 -45 0 -24 8 -24 8 7 9 17 1 35 -3 38 -9z
m213 -35 c85 -32 252 -111 252 -118 0 -2 -94 26 -209 61 -151 48 -208 69 -204
79 9 22 64 15 161 -22z m206 0 c232 -47 477 -126 654 -212 68 -33 92 -50 92
-64 0 -10 -2 -19 -5 -19 -3 0 -83 22 -178 49 -95 27 -210 59 -256 70 -46 12
-125 40 -175 62 -50 23 -143 63 -206 90 -137 57 -119 63 74 24z m-206 -71
c139 -41 222 -73 405 -159 31 -14 57 -27 57 -29 0 -1 -38 4 -85 10 -105 16
-425 44 -494 44 -27 0 -52 3 -54 8 -6 10 4 172 11 172 3 0 75 -21 160 -46z
m-668 -25 c0 -14 -17 -10 -23 5 -4 10 -1 13 9 9 7 -3 14 -9 14 -14z m454 -78
c-3 -13 -7 -65 -9 -115 -3 -50 -7 -116 -10 -146 l-6 -56 158 0 c160 0 286 -12
423 -40 114 -24 159 -42 238 -96 76 -51 194 -113 281 -148 62 -24 61 -24 61
-5 0 9 -41 34 -105 64 -57 27 -138 73 -180 101 -72 50 -96 72 -56 51 10 -6 83
-29 162 -51 79 -22 152 -43 162 -46 13 -4 17 0 17 18 0 21 -10 25 -109 49
-134 33 -220 71 -290 128 l-55 44 -265 8 c-147 4 -296 8 -333 8 -51 1 -68 4
-68 15 0 11 29 15 133 20 72 4 204 10 292 14 l160 8 -165 7 c-91 4 -204 10
-253 13 l-87 6 62 45 63 44 75 -6 c41 -3 138 -15 215 -26 327 -47 517 -103
605 -179 l35 -31 -40 17 c-22 9 -65 27 -95 39 -65 27 -211 54 -330 60 l-85 4
70 -8 c142 -18 312 -75 414 -141 l61 -40 0 -165 0 -165 -35 0 c-96 0 -263 51
-482 146 -225 98 -326 129 -459 140 -78 6 -86 9 -99 33 l-15 26 6 -27 c6 -27
5 -28 -40 -28 -28 0 -46 4 -46 12 0 49 -48 -160 -66 -287 -3 -27 -9 -54 -12
-60 -4 -5 -7 -17 -7 -25 -1 -8 -3 -26 -4 -40 l-2 -25 -17 30 c-24 43 -28 230
-8 386 8 68 18 175 22 237 4 61 11 112 15 112 5 0 9 -7 9 -15 0 -8 4 -15 9
-15 5 0 14 7 21 15 7 8 19 15 26 15 17 0 18 16 3 26 -12 7 -5 61 14 109 l11
29 8 -34 c4 -19 5 -46 2 -59z m-294 25 c103 -39 174 -82 163 -99 -4 -7 -10
-97 -14 -201 -6 -178 -8 -191 -28 -207 -20 -16 -21 -27 -23 -181 -2 -157 -1
-165 24 -213 34 -67 56 -148 59 -217 1 -31 5 -57 8 -56 3 0 21 0 39 -1 25 -1
32 -5 32 -20 0 -12 9 -23 23 -27 12 -4 33 -14 46 -23 13 -8 38 -14 55 -12 25
2 29 0 19 -10 -10 -10 -10 -16 -1 -27 10 -11 9 -17 -5 -27 -20 -14 -150 -31
-165 -21 -5 3 -12 19 -15 35 -5 22 -19 37 -51 56 -51 30 -79 71 -102 153 -9
31 -33 87 -55 123 -21 36 -39 70 -39 76 0 5 -18 37 -39 71 -24 37 -38 68 -35
80 3 10 -4 50 -16 89 -16 54 -20 90 -18 167 l3 98 27 -21 c19 -15 29 -18 34
-10 7 11 -41 59 -58 59 -10 0 -9 238 1 308 4 29 4 55 -1 58 -4 3 -8 14 -8 26
0 24 14 22 140 -26z m1513 24 c10 0 15 -4 12 -10 -9 -14 -45 -12 -80 6 l-30
14 40 -5 c22 -3 48 -5 58 -5z m291 -23 c6 -15 7 -29 5 -32 -3 -2 -59 -8 -125
-11 -65 -4 -125 -12 -133 -18 -12 -9 -13 -7 -8 14 4 14 7 33 7 43 0 15 11 17
88 18 48 1 98 5 112 9 35 11 44 7 54 -23z m-1345 -92 c-13 -12 -132 -86 -135
-83 -1 2 0 22 3 46 l6 42 65 0 c36 0 63 -2 61 -5z m824 -55 c132 -30 167 -41
167 -56 0 -14 -28 -7 -190 46 -103 34 -98 36 23 10z m-280 -201 l52 -50 -42
20 c-49 24 -134 45 -260 65 l-88 14 143 1 143 1 52 -51z m-610 -161 c9 -23 15
-43 13 -45 -2 -2 -33 -1 -70 3 l-66 7 0 33 c0 31 2 33 43 37 23 2 47 4 53 5 6
1 18 -17 27 -40z m214 16 c37 -9 138 -48 223 -86 181 -82 353 -140 500 -170
58 -11 107 -22 109 -24 15 -13 -27 -12 -185 6 -234 26 -333 45 -402 76 -31 14
-86 37 -122 50 -40 16 -76 37 -93 57 l-28 32 18 -30 c16 -26 16 -28 2 -23 -9
4 -56 14 -103 24 -85 16 -88 18 -107 55 -10 21 -19 44 -19 50 0 16 114 6 207
-17z m-159 -154 c24 -58 29 -56 -90 -34 l-88 16 0 34 0 34 79 0 78 0 21 -50z
m132 5 c58 -17 92 -33 108 -51 40 -46 33 -50 -64 -34 -32 6 -74 13 -91 16 -33
5 -50 27 -68 82 -6 20 -4 23 12 18 10 -3 56 -17 103 -31z m211 -76 c41 -17 76
-34 79 -36 6 -6 -106 6 -125 13 -11 5 -39 54 -31 54 2 0 37 -14 77 -31z m-397
-7 c146 -25 139 -42 -16 -42 l-125 0 5 30 c5 35 2 35 136 12z m342 -44 c4 -5
-38 -8 -92 -8 -91 0 -124 8 -124 30 0 8 207 -13 216 -22z m72 -5 c-10 -2 -26
-2 -35 0 -10 3 -2 5 17 5 19 0 27 -2 18 -5z m-681 -25 c-3 -8 -6 -5 -6 6 -1
11 2 17 5 13 3 -3 4 -12 1 -19z m761 15 c-10 -2 -28 -2 -40 0 -13 2 -5 4 17 4
22 1 32 -1 23 -4z m179 -27 c37 -8 84 -22 103 -31 l35 -16 -40 5 c-22 4 -166
11 -319 16 -154 6 -283 13 -288 16 -31 19 14 24 216 24 157 0 245 -4 293 -14z
m-542 -6 c4 -6 -46 -10 -140 -9 -81 0 -143 4 -140 9 8 12 272 12 280 0z m-355
-89 c-1 -20 -40 46 -40 68 0 22 3 20 20 -18 11 -24 20 -46 20 -50z m1233 73
c23 -4 37 -12 37 -21 0 -16 -49 -12 -125 12 l-40 13 45 1 c25 0 62 -2 83 -5z
m-1039 -60 c14 -37 6 -41 -56 -23 -22 5 -38 16 -38 24 0 22 86 21 94 -1z m220
-26 c16 -26 21 -44 15 -47 -11 -3 -147 15 -180 25 -13 4 -39 43 -39 59 0 3 40
5 89 5 l90 0 25 -42z m649 19 c52 -11 76 -22 100 -46 36 -34 55 -39 63 -17 3
8 12 12 21 9 12 -5 14 -16 10 -50 -2 -25 -9 -49 -14 -54 -5 -5 -29 -2 -58 7
-151 46 -370 74 -587 74 -128 0 -126 -1 -168 79 l-12 24 288 -6 c177 -4 315
-12 357 -20z m-989 -132 c-4 -9 5 -17 28 -24 18 -5 25 -10 16 -10 -10 -1 -18
-5 -18 -11 0 -5 -11 -10 -24 -10 -20 0 -25 6 -28 34 -3 26 -1 33 11 28 11 -4
13 -1 6 14 -4 10 -9 30 -11 44 -3 16 1 11 10 -13 9 -21 13 -44 10 -52z m118
61 c29 -5 38 -13 47 -38 6 -17 11 -33 11 -34 0 -2 -33 -4 -74 -4 -81 0 -77 -3
-91 67 l-6 31 38 -8 c21 -4 54 -11 75 -14z m297 -64 l23 -35 -48 7 c-27 3 -79
9 -116 13 -57 5 -67 9 -77 30 -6 13 -11 27 -11 31 0 4 46 3 103 -2 103 -9 104
-9 126 -44z m491 4 c36 -9 107 -30 158 -47 l93 -31 -7 -32 c-3 -17 -8 -33 -10
-35 -7 -8 -384 40 -513 65 -145 29 -150 31 -183 77 l-21 30 209 -6 c140 -4
230 -11 274 -21z m-531 -61 c59 -9 100 -20 110 -30 15 -16 13 -17 -24 -11 -22
3 -80 8 -128 12 -71 5 -89 10 -98 25 -8 17 -6 19 18 19 15 0 70 -7 122 -15z
m441 -71 c113 -20 234 -46 270 -57 l65 -22 3 -49 3 -49 -60 7 c-69 8 -360 87
-441 120 -68 27 -140 72 -140 87 0 14 27 11 300 -37z m-676 11 c17 -18 34 -25
59 -25 26 0 39 -6 47 -19 16 -30 13 -31 -35 -16 -61 18 -57 17 -80 26 -11 4
-27 10 -35 13 -8 3 -22 10 -30 15 -8 5 -31 14 -50 19 -32 9 -29 10 33 11 60 1
71 -2 91 -24z m323 -35 c35 -6 93 -26 130 -45 76 -39 275 -93 448 -120 102
-17 136 -27 124 -40 -3 -2 -21 0 -40 5 -19 6 -109 17 -200 25 -174 16 -277 34
-492 87 -116 28 -130 34 -143 59 -8 15 -14 30 -14 34 0 9 121 6 187 -5z"/>
<path d="M2360 3680 c0 -5 4 -10 9 -10 6 0 13 5 16 10 3 6 -1 10 -9 10 -9 0
-16 -4 -16 -10z"/>
<path d="M2277 3599 c-24 -14 -21 -38 6 -44 37 -8 51 -8 67 -2 8 3 29 9 45 13
l30 8 -34 4 c-19 2 -37 0 -40 -5 -8 -11 -71 -16 -71 -6 0 5 5 14 12 21 16 16
7 23 -15 11z"/>
<path d="M2482 4299 c-7 -12 -11 -24 -8 -27 4 -3 33 -4 65 -3 33 1 69 -3 81
-9 26 -14 38 -6 21 13 -6 8 -34 17 -63 20 -28 4 -56 11 -62 17 -14 14 -19 13
-34 -11z"/>
<path d="M2853 4278 c-29 -11 -53 -24 -53 -29 0 -12 3 -11 37 2 15 7 43 15 62
18 27 5 31 8 20 18 -11 8 -26 6 -66 -9z"/>
<path d="M2583 4248 c-19 -25 -21 -46 -8 -72 12 -23 12 -27 -6 -36 -10 -6 -19
-16 -19 -22 0 -7 4 -7 14 1 8 6 19 10 26 9 20 -5 43 74 31 105 -11 29 -23 34
-38 15z"/>
<path d="M2864 4235 c-8 -32 3 -75 19 -75 31 0 46 44 31 84 -10 25 -43 19 -50
-9z"/>
<path d="M2799 4136 c44 -46 2 -87 -52 -51 -34 22 -49 -1 -17 -27 43 -35 103
-18 115 34 7 29 -22 68 -52 68 -14 0 -13 -4 6 -24z"/>
<path d="M2613 3989 c-88 -26 -82 -138 10 -185 55 -29 247 2 235 38 -3 7 -11
13 -19 13 -18 0 -27 21 -28 61 -1 27 4 33 32 42 l32 10 -40 1 c-22 1 -69 8
-105 16 -74 16 -74 16 -117 4z m115 -35 c28 -4 52 -10 52 -14 0 -4 -43 -11
-95 -16 -52 -5 -95 -6 -95 -2 0 12 44 38 65 38 11 0 44 -3 73 -6z m-5 -83 c11
7 24 6 37 -1 42 -23 13 -42 -65 -42 -47 0 -92 19 -79 32 13 12 57 17 74 9 9
-4 23 -3 33 2z"/>
<path d="M3070 3820 c0 -5 5 -10 10 -10 6 0 10 5 10 10 0 6 -4 10 -10 10 -5 0
-10 -4 -10 -10z"/>
<path d="M2887 3255 c-43 -13 -83 -22 -90 -19 -7 2 -25 -7 -42 -22 -20 -17
-23 -22 -8 -15 16 8 22 7 27 -4 7 -20 25 -19 134 7 69 16 91 26 87 36 -3 7 -5
20 -5 28 0 18 -8 17 -103 -11z"/>
<path d="M3124 3192 c3 -5 0 -13 -6 -15 -9 -4 -10 -6 -1 -6 17 -1 25 16 12 25
-7 4 -9 3 -5 -4z"/>
<path d="M3270 2553 c0 -55 5 -54 14 5 4 26 2 42 -4 42 -5 0 -10 -21 -10 -47z"/>
<path d="M2873 2505 c0 -22 2 -30 4 -17 2 12 2 30 0 40 -3 9 -5 -1 -4 -23z"/>
<path d="M3261 2484 c0 -11 3 -14 6 -6 3 7 2 16 -1 19 -3 4 -6 -2 -5 -13z"/>
<path d="M3241 2404 c0 -11 3 -14 6 -6 3 7 2 16 -1 19 -3 4 -6 -2 -5 -13z"/>
<path d="M2884 487 c-11 -29 0 -92 16 -92 11 0 15 12 15 49 0 49 -19 74 -31
43z"/>
<path d="M2880 362 c0 -16 -37 -52 -54 -52 -10 0 -16 -8 -16 -22 -1 -13 -7
-34 -15 -48 -18 -31 -19 -63 -2 -58 6 3 21 21 32 41 l21 36 12 -52 c15 -64 15
-94 2 -102 -12 -8 -13 -25 -2 -25 5 0 13 10 19 22 8 19 11 13 17 -40 6 -56 9
-62 30 -62 22 0 23 3 21 59 -2 33 -13 81 -25 108 -34 76 -41 122 -24 154 18
36 18 49 -1 49 -8 0 -15 -4 -15 -8z"/>
<path d="M1966 90 c-36 -40 -45 -60 -26 -60 6 0 10 6 10 13 0 6 16 29 35 50
18 20 30 37 26 37 -5 0 -25 -18 -45 -40z"/>
<path d="M2040 82 c0 -10 7 -27 15 -38 16 -21 20 -8 9 34 -8 26 -24 29 -24 4z"/>
<path d="M2558 51 c3 -22 8 -28 23 -24 16 5 16 7 4 20 -8 8 -15 19 -15 24 0 5
-4 9 -8 9 -5 0 -7 -13 -4 -29z"/>
<path d="M2780 23 c-74 -7 -74 -24 -1 -21 40 2 66 8 69 16 2 6 -2 11 -10 10
-7 -1 -33 -3 -58 -5z"/>
<path d="M2153 3 c15 -2 37 -2 50 0 12 2 0 4 -28 4 -27 0 -38 -2 -22 -4z"/>
</g>
</svg>
